<?xml version="1.0" encoding="UTF-8" standalone="no"?>
<svg
   xmlns:dc="http://purl.org/dc/elements/1.1/"
   xmlns:cc="http://creativecommons.org/ns#"
   xmlns:rdf="http://www.w3.org/1999/02/22-rdf-syntax-ns#"
   xmlns:svg="http://www.w3.org/2000/svg"
   xmlns="http://www.w3.org/2000/svg"
   xmlns:sodipodi="http://sodipodi.sourceforge.net/DTD/sodipodi-0.dtd"
   xmlns:inkscape="http://www.inkscape.org/namespaces/inkscape"
   width="100mm"
   height="150mm"
   viewBox="0 0 100 150"
   version="1.1"
   id="svg879"
   inkscape:version="1.0.1 (3bc2e813f5, 2020-09-07)"
   sodipodi:docname="tower6.svg">
  <defs
     id="defs873">
    <rect
       x="135"
       y="-5"
       width="125"
       height="30"
       id="rect2201" />
  </defs>
  <sodipodi:namedview
     id="base"
     pagecolor="#ffffff"
     bordercolor="#666666"
     borderopacity="1.0"
     inkscape:pageopacity="0.0"
     inkscape:pageshadow="2"
     inkscape:zoom="1.4940139"
     inkscape:cx="188.97638"
     inkscape:cy="238.61294"
     inkscape:document-units="mm"
     inkscape:current-layer="layer1"
     inkscape:document-rotation="0"
     showgrid="true"
     showguides="true"
     inkscape:window-width="1916"
     inkscape:window-height="1038"
     inkscape:window-x="0"
     inkscape:window-y="18"
     inkscape:window-maximized="1"
     fit-margin-top="0"
     fit-margin-left="0"
     fit-margin-right="0"
     fit-margin-bottom="0">
    <inkscape:grid
       type="xygrid"
       id="grid1442"
       dotted="true"
       units="mm"
       spacingx="5"
       spacingy="5"
       originx="0.390625"
       originy="0.39062498" />
    <sodipodi:guide
       position="0.390625,149.60938"
       orientation="0,793.70079"
       id="guide1453" />
    <sodipodi:guide
       position="210.39062,149.60938"
       orientation="1122.5197,0"
       id="guide1455" />
    <sodipodi:guide
       position="210.39062,-147.39063"
       orientation="0,-793.70079"
       id="guide1457" />
    <sodipodi:guide
       position="50.390625,169.60937"
       orientation="-1122.5197,0"
       id="guide1459" />
  </sodipodi:namedview>
  <metadata
     id="metadata876">
    <rdf:RDF>
      <cc:Work
         rdf:about="">
        <dc:format>image/svg+xml</dc:format>
        <dc:type
           rdf:resource="http://purl.org/dc/dcmitype/StillImage" />
        <dc:title></dc:title>
      </cc:Work>
    </rdf:RDF>
  </metadata>
  <g
     inkscape:label="Layer 1"
     inkscape:groupmode="layer"
     id="layer1"
     transform="translate(0.390625,0.390625)">
    <path
       id="path1444"
       style="fill:#964b00;fill-opacity:0.6;stroke:none;stroke-width:0;stroke-linecap:round;stroke-miterlimit:4;stroke-dasharray:none"
       d="M 99.609375,49.479505 C 99.609375,77.022017 50,149.60938 50,149.60938 c 0,0 -50.390625,-72.587363 -50.390625,-100.129875 0,-27.542512 22.385763,-49.87013 50,-49.87013 27.614237,0 50,22.327618 50,49.87013 z"
       sodipodi:nodetypes="scsss" />
    <g
       aria-label="6"
       id="text2211"
       style="font-size:110px;line-height:125%;font-family:'DejaVu Sans';-inkscape-font-specification:'DejaVu Sans, Normal';letter-spacing:0px;word-spacing:0px;fill:#ffffff;fill-opacity:0.99997;stroke:#ffffff;stroke-width:0;stroke-linecap:butt;stroke-linejoin:miter;stroke-miterlimit:4;stroke-dasharray:none;stroke-opacity:1">
      <path
         d="m 49.59529,49.699135 q -7.304687,0 -11.601562,4.995117 -4.243164,4.995117 -4.243164,13.696289 0,8.647461 4.243164,13.696289 4.296875,4.995117 11.601562,4.995117 7.304688,0 11.547852,-4.995117 4.296875,-5.048828 4.296875,-13.696289 0,-8.701172 -4.296875,-13.696289 Q 56.899978,49.699135 49.59529,49.699135 Z M 71.133376,15.700111 v 9.882813 q -4.082031,-1.933594 -8.271484,-2.954102 -4.135742,-1.020507 -8.217774,-1.020507 -10.742187,0 -16.435547,7.250976 -5.639648,7.250977 -6.445312,21.914063 3.168945,-4.672852 7.949219,-7.143555 4.780273,-2.524414 10.527343,-2.524414 12.084961,0 19.067383,7.358398 7.036133,7.304688 7.036133,19.926758 0,12.353516 -7.304687,19.819336 -7.304688,7.46582 -19.44336,7.46582 -13.911133,0 -21.269531,-10.634765 -7.358399,-10.688477 -7.358399,-30.9375 0,-19.013672 9.023438,-30.292969 9.023437,-11.333008 24.223633,-11.333008 4.082031,0 8.217773,0.805664 4.189453,0.805664 8.701172,2.416992 z"
         style="fill:#ffffff;fill-opacity:0.99997;stroke:#ffffff;stroke-width:0;stroke-miterlimit:4;stroke-dasharray:none;stroke-opacity:1"
         id="path2234" />
    </g>
  </g>
</svg>
