<?xml version="1.0" encoding="UTF-8" standalone="no"?>
<svg
   xmlns:dc="http://purl.org/dc/elements/1.1/"
   xmlns:cc="http://creativecommons.org/ns#"
   xmlns:rdf="http://www.w3.org/1999/02/22-rdf-syntax-ns#"
   xmlns:svg="http://www.w3.org/2000/svg"
   xmlns="http://www.w3.org/2000/svg"
   xmlns:sodipodi="http://sodipodi.sourceforge.net/DTD/sodipodi-0.dtd"
   xmlns:inkscape="http://www.inkscape.org/namespaces/inkscape"
   width="100mm"
   height="150mm"
   viewBox="0 0 100 150"
   version="1.1"
   id="svg879"
   inkscape:version="1.0.1 (3bc2e813f5, 2020-09-07)"
   sodipodi:docname="tower3.svg">
  <defs
     id="defs873" />
  <sodipodi:namedview
     id="base"
     pagecolor="#ffffff"
     bordercolor="#666666"
     borderopacity="1.0"
     inkscape:pageopacity="0.0"
     inkscape:pageshadow="2"
     inkscape:zoom="1"
     inkscape:cx="407.15623"
     inkscape:cy="302.49847"
     inkscape:document-units="mm"
     inkscape:current-layer="layer1"
     inkscape:document-rotation="0"
     showgrid="true"
     showguides="true"
     inkscape:window-width="1916"
     inkscape:window-height="1038"
     inkscape:window-x="0"
     inkscape:window-y="18"
     inkscape:window-maximized="1"
     fit-margin-top="0"
     fit-margin-left="0"
     fit-margin-right="0"
     fit-margin-bottom="0">
    <inkscape:grid
       type="xygrid"
       id="grid1442"
       dotted="true"
       units="mm"
       spacingx="5"
       spacingy="5"
       originx="0.390625"
       originy="0.39062498" />
    <sodipodi:guide
       position="0.390625,149.60938"
       orientation="0,793.70079"
       id="guide1453" />
    <sodipodi:guide
       position="210.39062,149.60938"
       orientation="1122.5197,0"
       id="guide1455" />
    <sodipodi:guide
       position="210.39062,-147.39063"
       orientation="0,-793.70079"
       id="guide1457" />
    <sodipodi:guide
       position="50.390625,169.60937"
       orientation="-1122.5197,0"
       id="guide1459" />
  </sodipodi:namedview>
  <metadata
     id="metadata876">
    <rdf:RDF>
      <cc:Work
         rdf:about="">
        <dc:format>image/svg+xml</dc:format>
        <dc:type
           rdf:resource="http://purl.org/dc/dcmitype/StillImage" />
        <dc:title></dc:title>
      </cc:Work>
    </rdf:RDF>
  </metadata>
  <g
     inkscape:label="Layer 1"
     inkscape:groupmode="layer"
     id="layer1"
     transform="translate(0.390625,0.390625)">
    <path
       id="path1444"
       style="fill:#ff0000;fill-opacity:0.60000002;stroke:none;stroke-width:0;stroke-linecap:round;stroke-miterlimit:4;stroke-dasharray:none"
       d="M 99.609375,49.479505 C 99.609375,77.022017 50,149.60938 50,149.60938 c 0,0 -50.390625,-72.587363 -50.390625,-100.129875 0,-27.542512 22.385763,-49.87013 50,-49.87013 27.614237,0 50,22.327618 50,49.87013 z"
       sodipodi:nodetypes="scsss" />
    <g
       aria-label="3"
       id="text1451"
       style="font-style:normal;font-variant:normal;font-weight:normal;font-stretch:normal;font-size:110px;line-height:125%;font-family:'DejaVu Sans';-inkscape-font-specification:'DejaVu Sans';letter-spacing:0px;word-spacing:0px;opacity:0.999982;fill:#ffffff;fill-opacity:1;stroke:none;stroke-width:0;stroke-linecap:butt;stroke-linejoin:miter;stroke-opacity:1;stroke-miterlimit:4;stroke-dasharray:none">
      <path
         d="m 61.403809,51.847565 q 7.788086,1.665039 12.138671,6.928711 4.404297,5.263672 4.404297,12.998047 0,11.870117 -8.164062,18.36914 -8.164063,6.499024 -23.203125,6.499024 -5.048828,0 -10.419922,-1.020508 -5.317383,-0.966797 -11.010742,-2.954102 V 82.194244 q 4.511719,2.631836 9.882812,3.97461 5.371094,1.342773 11.225586,1.342773 10.205078,0 15.522461,-4.02832 5.371094,-4.02832 5.371094,-11.708984 0,-7.089844 -4.995117,-11.064454 -4.941407,-4.02832 -13.803711,-4.02832 h -9.345703 v -8.916016 h 9.77539 q 8.00293,0 12.246094,-3.168945 4.243164,-3.222656 4.243164,-9.238281 0,-6.176758 -4.404297,-9.453125 -4.350586,-3.330078 -12.514648,-3.330078 -4.458008,0 -9.560547,0.966797 -5.102539,0.966797 -11.225586,3.007812 v -9.667969 q 6.176758,-1.71875 11.547852,-2.578125 5.424804,-0.859375 10.205078,-0.859375 12.353515,0 19.550781,5.639649 7.197266,5.585937 7.197266,15.146484 0,6.660156 -3.813477,11.279297 -3.813477,4.56543 -10.849609,6.337891 z"
         style="font-style:normal;font-variant:normal;font-weight:normal;font-stretch:normal;font-size:110px;font-family:'DejaVu Sans';-inkscape-font-specification:'DejaVu Sans';fill:#ffffff;fill-opacity:1;stroke-width:0;stroke-miterlimit:4;stroke-dasharray:none"
         id="path1523" />
    </g>
  </g>
</svg>
