<?xml version="1.0" encoding="UTF-8" standalone="no"?>
<svg
   xmlns:dc="http://purl.org/dc/elements/1.1/"
   xmlns:cc="http://creativecommons.org/ns#"
   xmlns:rdf="http://www.w3.org/1999/02/22-rdf-syntax-ns#"
   xmlns:svg="http://www.w3.org/2000/svg"
   xmlns="http://www.w3.org/2000/svg"
   xmlns:sodipodi="http://sodipodi.sourceforge.net/DTD/sodipodi-0.dtd"
   xmlns:inkscape="http://www.inkscape.org/namespaces/inkscape"
   width="100mm"
   height="150mm"
   viewBox="0 0 100 150"
   version="1.1"
   id="svg879"
   inkscape:version="1.0.1 (3bc2e813f5, 2020-09-07)"
   sodipodi:docname="tower5.svg">
  <defs
     id="defs873">
    <rect
       x="135"
       y="-5"
       width="125"
       height="30"
       id="rect2201" />
  </defs>
  <sodipodi:namedview
     id="base"
     pagecolor="#ffffff"
     bordercolor="#666666"
     borderopacity="1.0"
     inkscape:pageopacity="0.0"
     inkscape:pageshadow="2"
     inkscape:zoom="1.4940139"
     inkscape:cx="188.97638"
     inkscape:cy="264.60595"
     inkscape:document-units="mm"
     inkscape:current-layer="layer1"
     inkscape:document-rotation="0"
     showgrid="true"
     showguides="true"
     inkscape:window-width="1916"
     inkscape:window-height="1038"
     inkscape:window-x="0"
     inkscape:window-y="18"
     inkscape:window-maximized="1"
     fit-margin-top="0"
     fit-margin-left="0"
     fit-margin-right="0"
     fit-margin-bottom="0">
    <inkscape:grid
       type="xygrid"
       id="grid1442"
       dotted="true"
       units="mm"
       spacingx="5"
       spacingy="5"
       originx="0.390625"
       originy="0.39062498" />
    <sodipodi:guide
       position="0.390625,149.60938"
       orientation="0,793.70079"
       id="guide1453" />
    <sodipodi:guide
       position="210.39062,149.60938"
       orientation="1122.5197,0"
       id="guide1455" />
    <sodipodi:guide
       position="210.39062,-147.39063"
       orientation="0,-793.70079"
       id="guide1457" />
    <sodipodi:guide
       position="50.390625,169.60937"
       orientation="-1122.5197,0"
       id="guide1459" />
  </sodipodi:namedview>
  <metadata
     id="metadata876">
    <rdf:RDF>
      <cc:Work
         rdf:about="">
        <dc:format>image/svg+xml</dc:format>
        <dc:type
           rdf:resource="http://purl.org/dc/dcmitype/StillImage" />
        <dc:title></dc:title>
      </cc:Work>
    </rdf:RDF>
  </metadata>
  <g
     inkscape:label="Layer 1"
     inkscape:groupmode="layer"
     id="layer1"
     transform="translate(0.390625,0.390625)">
    <path
       id="path1444"
       style="fill:#00ff00;fill-opacity:0.6;stroke:none;stroke-width:0;stroke-linecap:round;stroke-miterlimit:4;stroke-dasharray:none"
       d="M 99.609375,49.479505 C 99.609375,77.022017 50,149.60938 50,149.60938 c 0,0 -50.390625,-72.587363 -50.390625,-100.129875 0,-27.542512 22.385763,-49.87013 50,-49.87013 27.614237,0 50,22.327618 50,49.87013 z"
       sodipodi:nodetypes="scsss" />
    <g
       aria-label="5"
       id="text2211"
       style="font-size:110px;line-height:125%;font-family:'DejaVu Sans';-inkscape-font-specification:'DejaVu Sans, Normal';letter-spacing:0px;word-spacing:0px;fill:#ffffff;fill-opacity:0.99997;stroke:#ffffff;stroke-width:0;stroke-linecap:butt;stroke-linejoin:miter;stroke-miterlimit:4;stroke-dasharray:none;stroke-opacity:1">
      <path
         d="m 28.796116,14.01004 h 42.592773 v 9.13086 h -32.65625 v 19.658203 q 2.363282,-0.805664 4.726563,-1.181641 2.363281,-0.429687 4.726562,-0.429687 13.427735,0 21.269532,7.358398 7.841796,7.358399 7.841796,19.926758 0,12.944336 -8.05664,20.141601 -8.056641,7.143555 -22.719727,7.143555 -5.048828,0 -10.3125,-0.859375 -5.209961,-0.859375 -10.795898,-2.578125 v -10.90332 q 4.833984,2.631836 9.990234,3.920898 5.15625,1.289063 10.903321,1.289063 9.291992,0 14.716796,-4.887696 5.424805,-4.887695 5.424805,-13.266601 0,-8.378906 -5.424805,-13.266602 -5.424804,-4.887695 -14.716796,-4.887695 -4.350586,0 -8.701172,0.966797 -4.296875,0.966797 -8.808594,3.007812 z"
         style="fill:#ffffff;fill-opacity:0.99997;stroke:#ffffff;stroke-width:0;stroke-miterlimit:4;stroke-dasharray:none;stroke-opacity:1"
         id="path2213" />
    </g>
  </g>
</svg>
