<?xml version="1.0" encoding="UTF-8" standalone="no"?>
<svg
   xmlns:dc="http://purl.org/dc/elements/1.1/"
   xmlns:cc="http://creativecommons.org/ns#"
   xmlns:rdf="http://www.w3.org/1999/02/22-rdf-syntax-ns#"
   xmlns:svg="http://www.w3.org/2000/svg"
   xmlns="http://www.w3.org/2000/svg"
   xmlns:sodipodi="http://sodipodi.sourceforge.net/DTD/sodipodi-0.dtd"
   xmlns:inkscape="http://www.inkscape.org/namespaces/inkscape"
   width="100mm"
   height="150mm"
   viewBox="0 0 100 150"
   version="1.1"
   id="svg879"
   inkscape:version="1.0.1 (3bc2e813f5, 2020-09-07)"
   sodipodi:docname="tower8.svg">
  <defs
     id="defs873">
    <rect
       x="135"
       y="-5"
       width="125"
       height="30"
       id="rect2201" />
  </defs>
  <sodipodi:namedview
     id="base"
     pagecolor="#ffffff"
     bordercolor="#666666"
     borderopacity="1.0"
     inkscape:pageopacity="0.0"
     inkscape:pageshadow="2"
     inkscape:zoom="1.494"
     inkscape:cx="189"
     inkscape:cy="238.3"
     inkscape:document-units="mm"
     inkscape:current-layer="layer1"
     inkscape:document-rotation="0"
     showgrid="true"
     showguides="true"
     inkscape:window-width="1916"
     inkscape:window-height="1038"
     inkscape:window-x="0"
     inkscape:window-y="18"
     inkscape:window-maximized="1"
     fit-margin-top="0"
     fit-margin-left="0"
     fit-margin-right="0"
     fit-margin-bottom="0">
    <inkscape:grid
       type="xygrid"
       id="grid1442"
       dotted="true"
       units="mm"
       spacingx="5"
       spacingy="5"
       originx="0.390625"
       originy="0.39062498" />
    <sodipodi:guide
       position="0.390625,149.60938"
       orientation="0,793.70079"
       id="guide1453" />
    <sodipodi:guide
       position="210.39062,149.60938"
       orientation="1122.5197,0"
       id="guide1455" />
    <sodipodi:guide
       position="210.39062,-147.39063"
       orientation="0,-793.70079"
       id="guide1457" />
    <sodipodi:guide
       position="50.390625,169.60937"
       orientation="-1122.5197,0"
       id="guide1459" />
  </sodipodi:namedview>
  <metadata
     id="metadata876">
    <rdf:RDF>
      <cc:Work
         rdf:about="">
        <dc:format>image/svg+xml</dc:format>
        <dc:type
           rdf:resource="http://purl.org/dc/dcmitype/StillImage" />
        <dc:title />
      </cc:Work>
    </rdf:RDF>
  </metadata>
  <g
     inkscape:label="Layer 1"
     inkscape:groupmode="layer"
     id="layer1"
     transform="translate(0.3906,0.3906)">
    <path
       id="path1444"
       style="fill:#0000ff;fill-opacity:0.6;stroke:none;stroke-width:0;stroke-linecap:round;stroke-miterlimit:4;stroke-dasharray:none"
       d="M 99.61,49.48 C 99.61,77.02 50,149.6 50,149.6 50,149.6 -0.3906,77.02 -0.3906,49.48 -0.3906,21.94 22,-0.3906 49.61,-0.3906 c 27.61,0 50,22.3306 50,49.8706 z"
       sodipodi:nodetypes="scsss" />
    <g
       aria-label="8"
       id="text2211"
       style="font-size:110px;line-height:125%;font-family:'DejaVu Sans';-inkscape-font-specification:'DejaVu Sans, Normal';letter-spacing:0px;word-spacing:0px;fill:#ffffff;fill-opacity:0.99997;stroke:#ffffff;stroke-width:0;stroke-linecap:butt;stroke-linejoin:miter;stroke-miterlimit:4;stroke-dasharray:none;stroke-opacity:1"
       transform="translate(1.57,0.72)">
      <path
         d="m 48.25,56.04 q -7.73,0 -12.19,4.13 -4.4,4.14 -4.4,11.39 0,7.25 4.4,11.39 4.46,4.13 12.19,4.13 7.74,0 12.19,-4.13 4.46,-4.19 4.46,-11.39 0,-7.25 -4.46,-11.39 -4.4,-4.13 -12.19,-4.13 z M 37.4,51.42 q -6.98,-1.72 -10.9,-6.5 -3.87,-4.78 -3.87,-11.66 0,-9.61 6.82,-15.2 6.88,-5.58 18.8,-5.58 11.98,0 18.8,5.58 6.82,5.59 6.82,15.2 0,6.88 -3.92,11.66 -3.87,4.78 -10.79,6.5 7.84,1.82 12.19,7.14 4.4,5.32 4.4,13 0,11.65 -7.14,17.89 -7.09,6.23 -20.36,6.23 -13.26,0 -20.41,-6.23 -7.09,-6.24 -7.09,-17.89 0,-7.68 4.41,-13 4.4,-5.32 12.24,-7.14 z M 33.43,34.28 q 0,6.23 3.87,9.73 3.92,3.49 10.95,3.49 6.98,0 10.91,-3.49 3.97,-3.5 3.97,-9.73 0,-6.23 -3.97,-9.72 -3.93,-3.49 -10.91,-3.49 -7.03,0 -10.95,3.49 -3.87,3.49 -3.87,9.72 z"
         style="fill:#ffffff;fill-opacity:0.99997;stroke:#ffffff;stroke-width:0;stroke-miterlimit:4;stroke-dasharray:none;stroke-opacity:1"
         id="path2255" />
    </g>
  </g>
</svg>
